<mxfile host="app.diagrams.net" modified="2021-05-21T10:12:38.677Z" agent="5.0 (Windows NT 10.0; Win64; x64) AppleWebKit/537.36 (KHTML, like Gecko) Chrome/90.0.4430.212 Safari/537.36 Edg/90.0.818.62" etag="tGWSaJWyd6I6_mQbmtbm" version="14.6.13" type="github">
  <diagram name="Page-1" id="bfe91b75-5d2c-26a0-9c1d-138518896778">
    <mxGraphModel dx="1038" dy="579" grid="1" gridSize="10" guides="1" tooltips="1" connect="1" arrows="1" fold="1" page="1" pageScale="1" pageWidth="1100" pageHeight="850" background="none" math="0" shadow="0">
      <root>
        <mxCell id="0" />
        <mxCell id="1" parent="0" />
        <mxCell id="FSaXXTYpV7SDvfcxFyZV-4" value="" style="whiteSpace=wrap;html=1;shape=mxgraph.basic.isocube;isoAngle=15;direction=west;flipV=1;flipH=0;rotation=115;" vertex="1" parent="1">
          <mxGeometry x="51.21" y="267.95000000000005" width="382.17" height="191.36" as="geometry" />
        </mxCell>
        <mxCell id="FSaXXTYpV7SDvfcxFyZV-13" value="" style="whiteSpace=wrap;html=1;shape=mxgraph.basic.isocube;isoAngle=15;direction=west;flipV=1;flipH=0;rotation=115;" vertex="1" parent="1">
          <mxGeometry x="70" y="278.15999999999997" width="380" height="191.36" as="geometry" />
        </mxCell>
        <mxCell id="FSaXXTYpV7SDvfcxFyZV-14" value="" style="whiteSpace=wrap;html=1;shape=mxgraph.basic.isocube;isoAngle=15;direction=west;flipV=1;flipH=0;rotation=115;strokeColor=#FF0000;" vertex="1" parent="1">
          <mxGeometry x="151" y="325.76" width="250" height="127.26" as="geometry" />
        </mxCell>
        <mxCell id="FSaXXTYpV7SDvfcxFyZV-15" value="" style="whiteSpace=wrap;html=1;shape=mxgraph.basic.isocube;isoAngle=15;direction=west;flipV=1;flipH=0;rotation=115;" vertex="1" parent="1">
          <mxGeometry x="166" y="332.05" width="250" height="127.26" as="geometry" />
        </mxCell>
        <mxCell id="FSaXXTYpV7SDvfcxFyZV-16" value="" style="whiteSpace=wrap;html=1;shape=mxgraph.basic.isocube;isoAngle=15;direction=west;flipV=1;flipH=0;rotation=115;" vertex="1" parent="1">
          <mxGeometry x="182.17" y="337.95" width="250" height="127.26" as="geometry" />
        </mxCell>
        <mxCell id="FSaXXTYpV7SDvfcxFyZV-18" value="224×224×64" style="text;html=1;resizable=0;autosize=1;align=center;verticalAlign=middle;points=[];fillColor=none;strokeColor=none;rounded=0;fontSize=13;" vertex="1" parent="1">
          <mxGeometry x="291" y="200" width="90" height="20" as="geometry" />
        </mxCell>
        <mxCell id="FSaXXTYpV7SDvfcxFyZV-19" value="112×112×64" style="text;html=1;resizable=0;autosize=1;align=center;verticalAlign=middle;points=[];fillColor=none;strokeColor=none;rounded=0;fontSize=13;" vertex="1" parent="1">
          <mxGeometry x="311" y="260" width="90" height="20" as="geometry" />
        </mxCell>
        <mxCell id="FSaXXTYpV7SDvfcxFyZV-20" value="" style="whiteSpace=wrap;html=1;shape=mxgraph.basic.isocube;isoAngle=15;direction=west;flipV=1;flipH=0;rotation=115;strokeColor=#FF0000;" vertex="1" parent="1">
          <mxGeometry x="258.62" y="356" width="122.38" height="69.42" as="geometry" />
        </mxCell>
        <mxCell id="FSaXXTYpV7SDvfcxFyZV-22" value="" style="whiteSpace=wrap;html=1;shape=mxgraph.basic.isocube;isoAngle=15;direction=west;flipV=1;flipH=0;rotation=115;" vertex="1" parent="1">
          <mxGeometry x="274.81" y="360.94" width="122.38" height="70.19" as="geometry" />
        </mxCell>
        <mxCell id="FSaXXTYpV7SDvfcxFyZV-23" value="" style="whiteSpace=wrap;html=1;shape=mxgraph.basic.isocube;isoAngle=15;direction=west;flipV=1;flipH=0;rotation=115;" vertex="1" parent="1">
          <mxGeometry x="290.47" y="370.55" width="122.38" height="70.19" as="geometry" />
        </mxCell>
        <mxCell id="FSaXXTYpV7SDvfcxFyZV-24" value="" style="whiteSpace=wrap;html=1;shape=mxgraph.basic.isocube;isoAngle=15;direction=west;flipV=1;flipH=0;rotation=115;" vertex="1" parent="1">
          <mxGeometry x="311" y="379.39" width="122.38" height="70.74" as="geometry" />
        </mxCell>
        <mxCell id="FSaXXTYpV7SDvfcxFyZV-25" value="56×56×256" style="text;html=1;resizable=0;autosize=1;align=center;verticalAlign=middle;points=[];fillColor=none;strokeColor=none;rounded=0;fontSize=13;" vertex="1" parent="1">
          <mxGeometry x="336" y="320" width="80" height="20" as="geometry" />
        </mxCell>
        <mxCell id="FSaXXTYpV7SDvfcxFyZV-31" value="28×28×512" style="text;html=1;resizable=0;autosize=1;align=center;verticalAlign=middle;points=[];fillColor=none;strokeColor=none;rounded=0;fontSize=13;" vertex="1" parent="1">
          <mxGeometry x="411" y="379.39" width="80" height="20" as="geometry" />
        </mxCell>
        <mxCell id="FSaXXTYpV7SDvfcxFyZV-32" value="" style="whiteSpace=wrap;html=1;shape=mxgraph.basic.isocube;isoAngle=15;direction=west;flipV=1;flipH=0;rotation=115;strokeColor=#FF0000;" vertex="1" parent="1">
          <mxGeometry x="362.77" y="398.26000000000005" width="69.4" height="51.13" as="geometry" />
        </mxCell>
        <mxCell id="FSaXXTYpV7SDvfcxFyZV-33" value="" style="whiteSpace=wrap;html=1;shape=mxgraph.basic.isocube;isoAngle=15;direction=west;flipV=1;flipH=0;rotation=115;" vertex="1" parent="1">
          <mxGeometry x="381" y="408.18000000000006" width="69.4" height="51.13" as="geometry" />
        </mxCell>
        <mxCell id="FSaXXTYpV7SDvfcxFyZV-34" value="" style="whiteSpace=wrap;html=1;shape=mxgraph.basic.isocube;isoAngle=15;direction=west;flipV=1;flipH=0;rotation=115;" vertex="1" parent="1">
          <mxGeometry x="401" y="418.39000000000004" width="69.4" height="51.13" as="geometry" />
        </mxCell>
        <mxCell id="FSaXXTYpV7SDvfcxFyZV-35" value="" style="whiteSpace=wrap;html=1;shape=mxgraph.basic.isocube;isoAngle=15;direction=west;flipV=1;flipH=0;rotation=115;" vertex="1" parent="1">
          <mxGeometry x="420.6" y="427.42" width="69.4" height="51.13" as="geometry" />
        </mxCell>
        <mxCell id="FSaXXTYpV7SDvfcxFyZV-37" value="" style="whiteSpace=wrap;html=1;shape=mxgraph.basic.isocube;isoAngle=15;direction=west;flipV=1;flipH=0;rotation=115;strokeColor=#FF0000;" vertex="1" parent="1">
          <mxGeometry x="460" y="440.74000000000007" width="39.6" height="41.26" as="geometry" />
        </mxCell>
        <mxCell id="FSaXXTYpV7SDvfcxFyZV-38" value="" style="whiteSpace=wrap;html=1;shape=mxgraph.basic.isocube;isoAngle=15;direction=west;flipV=1;flipH=0;rotation=115;" vertex="1" parent="1">
          <mxGeometry x="490" y="453.02000000000004" width="39.6" height="41.26" as="geometry" />
        </mxCell>
        <mxCell id="FSaXXTYpV7SDvfcxFyZV-39" value="" style="whiteSpace=wrap;html=1;shape=mxgraph.basic.isocube;isoAngle=15;direction=west;flipV=1;flipH=0;rotation=115;" vertex="1" parent="1">
          <mxGeometry x="518.6" y="465.21000000000004" width="39.6" height="41.26" as="geometry" />
        </mxCell>
        <mxCell id="FSaXXTYpV7SDvfcxFyZV-40" value="" style="whiteSpace=wrap;html=1;shape=mxgraph.basic.isocube;isoAngle=15;direction=west;flipV=1;flipH=0;rotation=115;" vertex="1" parent="1">
          <mxGeometry x="549.2" y="478.54999999999995" width="39.6" height="40.48" as="geometry" />
        </mxCell>
        <mxCell id="FSaXXTYpV7SDvfcxFyZV-41" value="14×14×512" style="text;html=1;resizable=0;autosize=1;align=center;verticalAlign=middle;points=[];fillColor=none;strokeColor=none;rounded=0;fontSize=13;" vertex="1" parent="1">
          <mxGeometry x="508.6" y="431.13" width="80" height="20" as="geometry" />
        </mxCell>
        <mxCell id="FSaXXTYpV7SDvfcxFyZV-43" value="" style="whiteSpace=wrap;html=1;shape=mxgraph.basic.isocube;isoAngle=15;direction=west;flipV=1;flipH=0;rotation=115;strokeColor=#FF0000;" vertex="1" parent="1">
          <mxGeometry x="597.65" y="488.16" width="17.9" height="47.1" as="geometry" />
        </mxCell>
        <mxCell id="FSaXXTYpV7SDvfcxFyZV-44" value="7×7×512" style="text;html=1;resizable=0;autosize=1;align=center;verticalAlign=middle;points=[];fillColor=none;strokeColor=none;rounded=0;fontSize=13;" vertex="1" parent="1">
          <mxGeometry x="588.6" y="482" width="70" height="20" as="geometry" />
        </mxCell>
        <mxCell id="FSaXXTYpV7SDvfcxFyZV-45" value="" style="whiteSpace=wrap;html=1;shape=mxgraph.basic.isocube;isoAngle=15;direction=west;flipV=1;flipH=0;rotation=115;strokeColor=#007FFF;" vertex="1" parent="1">
          <mxGeometry x="648.98" y="506.47" width="9.62" height="54.42" as="geometry" />
        </mxCell>
        <mxCell id="FSaXXTYpV7SDvfcxFyZV-46" value="1×1×4096" style="text;html=1;resizable=0;autosize=1;align=center;verticalAlign=middle;points=[];fillColor=none;strokeColor=none;rounded=0;fontSize=13;" vertex="1" parent="1">
          <mxGeometry x="658.6" y="510.94" width="70" height="20" as="geometry" />
        </mxCell>
        <mxCell id="FSaXXTYpV7SDvfcxFyZV-47" value="" style="whiteSpace=wrap;html=1;shape=mxgraph.basic.isocube;isoAngle=15;direction=west;flipV=1;flipH=0;rotation=115;strokeColor=#007FFF;" vertex="1" parent="1">
          <mxGeometry x="700" y="530.94" width="9.62" height="54.42" as="geometry" />
        </mxCell>
        <mxCell id="FSaXXTYpV7SDvfcxFyZV-53" value="" style="whiteSpace=wrap;html=1;shape=mxgraph.basic.isocube;isoAngle=15;direction=west;flipV=1;flipH=0;rotation=115;strokeColor=#007FFF;" vertex="1" parent="1">
          <mxGeometry x="740.69" y="560.45" width="8.66" height="36.83" as="geometry" />
        </mxCell>
        <mxCell id="FSaXXTYpV7SDvfcxFyZV-54" value="" style="whiteSpace=wrap;html=1;shape=mxgraph.basic.isocube;isoAngle=15;direction=west;flipV=1;flipH=0;rotation=115;strokeColor=#FF8000;" vertex="1" parent="1">
          <mxGeometry x="766.61" y="582.41" width="8.66" height="19.11" as="geometry" />
        </mxCell>
        <mxCell id="FSaXXTYpV7SDvfcxFyZV-55" value="1×1×1000" style="text;html=1;resizable=0;autosize=1;align=center;verticalAlign=middle;points=[];fillColor=none;strokeColor=none;rounded=0;fontSize=13;" vertex="1" parent="1">
          <mxGeometry x="735.94" y="548.1500000000001" width="70" height="20" as="geometry" />
        </mxCell>
        <mxCell id="FSaXXTYpV7SDvfcxFyZV-56" value="" style="whiteSpace=wrap;html=1;shape=mxgraph.basic.isocube;isoAngle=15;direction=west;flipV=1;flipH=0;rotation=115;" vertex="1" parent="1">
          <mxGeometry x="517.4" y="615.63" width="29.2" height="30" as="geometry" />
        </mxCell>
        <mxCell id="FSaXXTYpV7SDvfcxFyZV-57" value="convolution+ReLU" style="text;html=1;resizable=0;autosize=1;align=center;verticalAlign=middle;points=[];fillColor=none;strokeColor=none;rounded=0;fontSize=13;" vertex="1" parent="1">
          <mxGeometry x="546.6" y="620.63" width="120" height="20" as="geometry" />
        </mxCell>
        <mxCell id="FSaXXTYpV7SDvfcxFyZV-58" value="" style="whiteSpace=wrap;html=1;shape=mxgraph.basic.isocube;isoAngle=15;direction=west;flipV=1;flipH=0;rotation=115;strokeColor=#FF0000;" vertex="1" parent="1">
          <mxGeometry x="517.4" y="650" width="29.2" height="30" as="geometry" />
        </mxCell>
        <mxCell id="FSaXXTYpV7SDvfcxFyZV-59" value="maxpooling" style="text;html=1;resizable=0;autosize=1;align=center;verticalAlign=middle;points=[];fillColor=none;strokeColor=none;rounded=0;fontSize=13;" vertex="1" parent="1">
          <mxGeometry x="550" y="653" width="80" height="20" as="geometry" />
        </mxCell>
        <mxCell id="FSaXXTYpV7SDvfcxFyZV-61" value="" style="whiteSpace=wrap;html=1;shape=mxgraph.basic.isocube;isoAngle=15;direction=west;flipV=1;flipH=0;rotation=115;strokeColor=#007FFF;" vertex="1" parent="1">
          <mxGeometry x="517.4" y="684" width="29.2" height="30" as="geometry" />
        </mxCell>
        <mxCell id="FSaXXTYpV7SDvfcxFyZV-62" value="fully-connected+ReLU" style="text;html=1;resizable=0;autosize=1;align=center;verticalAlign=middle;points=[];fillColor=none;strokeColor=none;rounded=0;fontSize=13;" vertex="1" parent="1">
          <mxGeometry x="550" y="689" width="140" height="20" as="geometry" />
        </mxCell>
        <mxCell id="FSaXXTYpV7SDvfcxFyZV-63" value="" style="whiteSpace=wrap;html=1;shape=mxgraph.basic.isocube;isoAngle=15;direction=west;flipV=1;flipH=0;rotation=115;strokeColor=#007FFF;" vertex="1" parent="1">
          <mxGeometry x="518.6" y="720" width="29.2" height="30" as="geometry" />
        </mxCell>
      </root>
    </mxGraphModel>
  </diagram>
</mxfile>
